<?xml version="1.0" standalone="no"?>
<!DOCTYPE svg PUBLIC "-//W3C//DTD SVG 20010904//EN"
 "http://www.w3.org/TR/2001/REC-SVG-20010904/DTD/svg10.dtd">
<svg version="1.0" xmlns="http://www.w3.org/2000/svg"
 width="512.000000pt" height="512.000000pt" viewBox="0 0 512.000000 512.000000"
 preserveAspectRatio="xMidYMid meet">
<metadata>
Created by potrace 1.14, written by Peter Selinger 2001-2017
</metadata>
<g transform="translate(0.000000,512.000000) scale(0.100000,-0.100000)"
fill="#000000" stroke="none">
<path d="M1144 4939 c-2 -3 208 -217 466 -475 l470 -469 477 -5 478 -5 0 -472
c1 -260 3 -475 5 -477 3 -3 217 -217 475 -476 l470 -471 3 951 2 950 -477 477
-478 478 -943 0 c-519 0 -946 -3 -948 -6z"/>
<path d="M2017 3034 c-1 -1 -27 -4 -57 -7 -177 -19 -365 -105 -509 -232 -43
-38 -99 -98 -119 -127 -9 -13 -19 -25 -22 -28 -26 -21 -105 -178 -134 -266
-52 -157 -58 -364 -16 -526 31 -117 85 -231 155 -328 67 -91 1084 -1105 1165
-1162 71 -49 180 -111 180 -101 0 3 6 1 13 -5 17 -14 132 -48 208 -62 61 -11
211 -14 279 -6 49 7 165 34 198 48 344 139 563 403 620 748 8 50 7 256 -2 315
-18 117 -81 264 -167 392 -17 26 -277 293 -576 594 -461 462 -557 553 -626
596 -94 59 -181 100 -252 120 -46 12 -103 24 -138 29 -39 6 -195 12 -200 8z
m1018 -997 c-3 -62 -14 -133 -29 -192 -18 -67 -67 -189 -78 -193 -4 -2 -8 -10
-8 -18 0 -18 -85 -140 -136 -196 -164 -178 -386 -285 -631 -305 l-73 -6 5 59
c32 372 248 679 575 817 115 48 165 61 277 72 37 4 70 9 71 10 2 2 10 1 16 -1
8 -3 12 -21 11 -47z"/>
</g>
</svg>
